<svg xmlns="http://www.w3.org/2000/svg" viewBox="0 0 800 800"><defs><style>.cls-1{fill:#ed4440;}.cls-2{fill:#fff;}</style></defs><title>SJA_RED</title><g id="SJA"><rect id="RED_SQAURE" class="cls-1" width="800" height="800"/><path id="S" class="cls-2" d="M7.87,500.3V489.39q0-19.56-2-44.8T0,391.09H20.59q16.33,43.19,46.22,66t70.46,22.81q30.28,0,49.45-15.44t19.19-40.27q0-19.79-12.42-32.31t-40.08-20.58L95.89,354.75q-48.06-13.92-69.14-34.11T5.66,269.16q0-36.53,27-58.85T104.57,188q24.41,0,50.16,10.41t27.15,10.39a12,12,0,0,0,9.59-4.75c2.63-3.15,4.81-8,6.56-14.63H216.6v1c-.52,8.48-.81,14.74-.81,18.78q0,14.92,1.52,34t4.74,40.27H203.28q-15.94-35.33-42.38-54.4A98.72,98.72,0,0,0,101.75,210q-26.86,0-42.62,13.73T43.4,260.48q0,18.58,12.11,29.78t45.21,20.68l67.43,19q39.16,10.9,57.84,31.6t18.67,52.78q0,39.78-28.45,63.69t-76.1,23.93q-35.55,0-80.16-19-12.71-5.46-15.75-5.46a11.13,11.13,0,0,0-8.89,4.45q-3.62,4.45-8.46,18.37Z"/><path id="J" class="cls-2" d="M393.85,417.13V254.63q0-38.16-45.81-39c-5.27-.14-9.22-.21-11.92-.21v-20.4h152v20.2Q452,215.67,444,221t-8,33.62v151q0,26.85-2,39.17A63.18,63.18,0,0,1,427,466q-9.51,17.58-29.37,26.76t-48.75,9.19q-35.55,0-57.64-16.65t-22.12-42.91q0-18.57,9.42-29.58t24.92-11a26.8,26.8,0,0,1,20,8.28,28,28,0,0,1,8.07,20.38q0,13.94-12.41,23t-12.42,10.69q0,5.86,9.9,10.8a50.15,50.15,0,0,0,22.81,5q28.63,0,41.59-14.72t12.91-48.06"/><path id="A" class="cls-2" d="M473.38,494.85V475.06q22-1.41,33.81-11.6t23.32-40.88l88-232.35h33.91l94.28,243.86q8.67,22.61,19.17,30.79T800,475.06v19.79H663.56V475.06q30.26-2,37.63-6.05t7.38-14.33q0-5.46-7.07-24.42c-.68-1.75-1.15-3-1.42-3.85l-15.75-42H569.28l-13.93,37.35a97.66,97.66,0,0,0-4.94,15.94,60.84,60.84,0,0,0-1.74,12.52q0,13.92,8.6,19.37t32,5.45v19.79ZM577.15,362.22h98.51l-48.85-129.8Z"/></g></svg>