<?xml version="1.0" encoding="utf-8"?>
<!-- Generator: Adobe Illustrator 22.1.0, SVG Export Plug-In . SVG Version: 6.00 Build 0)  -->
<svg version="1.1" id="WHITE" xmlns="http://www.w3.org/2000/svg" xmlns:xlink="http://www.w3.org/1999/xlink" x="0px" y="0px"
	 viewBox="0 0 800 439.4" style="enable-background:new 0 0 800 439.4;" xml:space="preserve">
<style type="text/css">
	.st0{fill:#001B26;}
	.st1{fill:#ED4440;}
</style>
<title>SJA_WHITE_LOGO</title>
<path id="S" class="st0" d="M166.2,281.2v-7.4c0-8.8-0.5-19-1.4-30.4s-2.2-23.5-4-36.3h14c7.4,19.5,17.8,34.4,31.3,44.8
	c13.5,10.3,29.4,15.5,47.8,15.4c13.7,0,24.9-3.5,33.5-10.5s13-16.1,13-27.3c0-8.9-2.8-16.2-8.4-21.9c-5.6-5.7-14.7-10.3-27.2-14
	l-39-11.2c-21.7-6.2-37.3-13.9-46.8-23.1s-14.3-20.8-14.3-34.9c0-16.5,6.1-29.8,18.3-39.9c12.2-10.1,28.5-15.1,48.7-15.1
	c11.7,0.1,23.2,2.5,34,7c11.6,4.7,17.8,7,18.4,7c2.6,0,5-1.2,6.5-3.2c1.8-2.1,3.3-5.4,4.5-9.9h12.6v0.7c-0.4,5.8-0.5,10-0.5,12.7
	c0,6.8,0.3,14.4,1,23.1s1.7,17.7,3.2,27.3h-12.7c-7.2-15.9-16.8-28.2-28.7-36.8c-11.6-8.5-25.7-13.1-40.1-13
	c-12.1,0-21.8,3.1-28.9,9.3s-10.7,14.5-10.7,24.9c0,8.4,2.7,15.1,8.2,20.2c5.5,5.1,15.7,9.7,30.6,14l45.7,12.9
	c17.7,4.9,30.8,12.1,39.2,21.4s12.7,21.3,12.7,35.8c0,18-6.4,32.4-19.3,43.2c-12.9,10.8-30.1,16.2-51.6,16.2
	c-16.1,0-34.2-4.3-54.4-12.9c-5.7-2.5-9.3-3.7-10.7-3.7c-2.4,0-4.6,1.1-6,3c-1.6,2-3.5,6.2-5.7,12.5L166.2,281.2z"/>
<path id="J" class="st0" d="M427.9,224.8V114.6c0-17.2-10.4-26-31.1-26.4c-3.6-0.1-6.3-0.1-8.1-0.1V74.3h103.1V88
	c-16.3,0.2-26.3,1.5-29.9,3.9s-5.4,10-5.4,22.8V217c0,12.1-0.5,21-1.4,26.6c-0.7,5-2.3,9.9-4.8,14.4c-4.3,7.9-10.9,14-19.9,18.1
	s-20,6.2-33.1,6.3c-16.1,0-29.1-3.8-39.1-11.3s-15-17.2-15-29.1c0-8.4,2.1-15.1,6.4-20.1s9.9-7.5,16.9-7.5c5.1-0.1,10,1.9,13.5,5.6
	c3.6,3.7,5.6,8.7,5.5,13.8c0,6.3-2.8,11.5-8.4,15.6c-5.6,4.1-8.4,6.5-8.4,7.3c0,2.6,2.2,5.1,6.7,7.3c4.8,2.3,10.1,3.4,15.5,3.3
	c13,0,22.4-3.3,28.2-10S427.9,239.8,427.9,224.8"/>
<path id="A" class="st0" d="M481.8,277.5v-13.4c10-0.7,17.6-3.3,22.9-7.9s10.6-13.8,15.8-27.7L580.2,71h23l63.9,165.4
	c3.9,10.2,8.2,17.2,13,20.9c4.8,3.7,12.5,6,23.1,6.9v13.4h-92.5v-13.5c13.7-0.9,22.2-2.3,25.5-4.1c3.3-1.8,5-5.1,5-9.7
	c0-2.5-1.6-8-4.8-16.6c-0.5-1.2-0.8-2-1-2.6l-10.7-28.5h-78l-9.4,25.3c-1.4,3.5-2.5,7.1-3.3,10.8c-0.7,2.8-1.1,5.6-1.2,8.5
	c0,6.3,1.9,10.7,5.8,13.1s11.1,3.7,21.7,3.7v13.4L481.8,277.5z M552.1,187.6h66.8l-33.1-88L552.1,187.6z"/>
<polygon id="ARROW_V" class="st1" points="136.5,73.4 151.8,51 129.6,0 107.4,51 122.6,73.3 122.6,366.2 107.4,388.4 129.6,439.4 
	151.8,388.4 136.5,366.1 "/>
<polygon id="ARROW_H" class="st1" points="749,332.1 800,309.9 749,287.6 726.7,302.9 73.3,302.9 51,287.6 0,309.9 51,332.1 
	73.3,316.8 726.7,316.8 "/>
</svg>
