<svg id="WHITE" xmlns="http://www.w3.org/2000/svg" viewBox="0 0 800 800"><defs><style>.cls-1{fill:#001b26;}.cls-2{fill:#ed4440;}</style></defs><title>SJA_WHITE_LOGO</title><path id="S" class="cls-1" d="M166.19,462.85v-7.39q0-13.27-1.37-30.38t-4-36.28h14q11.07,29.29,31.34,44.76T253.92,449q20.52,0,33.52-10.46t13-27.31q0-13.41-8.42-21.9t-27.17-14l-39-11.23Q193.28,354.74,179,341t-14.3-34.9q0-24.76,18.34-39.9t48.72-15.12a90.46,90.46,0,0,1,34,7.05q17.46,7.05,18.41,7.05a8.14,8.14,0,0,0,6.5-3.22q2.67-3.21,4.45-9.92H307.7v.68q-.54,8.63-.55,12.74,0,10.13,1,23.06t3.21,27.29H298.67Q287.85,291.91,269.93,279A66.87,66.87,0,0,0,229.83,266q-18.21,0-28.89,9.3t-10.67,24.92q0,12.58,8.22,20.19t30.65,14l45.71,12.86q26.56,7.4,39.21,21.43t12.66,35.78q0,27-19.28,43.18t-51.6,16.22q-24.1,0-54.35-12.86-8.61-3.7-10.67-3.7a7.56,7.56,0,0,0-6,3q-2.44,3-5.74,12.46Z"/><path id="J" class="cls-1" d="M427.87,406.46V296.29q0-25.87-31.06-26.41c-3.57-.1-6.25-.15-8.08-.15V255.91H491.79V269.6q-24.51.27-29.9,3.9t-5.42,22.79V398.66q0,18.21-1.37,26.56a42.89,42.89,0,0,1-4.78,14.36q-6.45,11.91-19.91,18.14T397.35,464q-24.11,0-39.08-11.29t-15-29.09c0-8.4,2.13-15.07,6.38-20.06s9.86-7.45,16.9-7.45a18.18,18.18,0,0,1,13.55,5.61,19,19,0,0,1,5.47,13.82q0,9.45-8.42,15.61t-8.41,7.25c0,2.65,2.24,5.08,6.71,7.32A34,34,0,0,0,390.92,449q19.43,0,28.2-10t8.75-32.58"/><path id="A" class="cls-1" d="M481.79,459.15V445.74q14.93-1,22.92-7.87t15.81-27.71L580.2,252.63h23L667.11,418q5.86,15.33,13,20.87t23.12,6.91v13.41H610.72V445.74q20.52-1.35,25.52-4.1c3.34-1.84,5-5.07,5-9.72q0-3.71-4.79-16.56c-.46-1.18-.78-2.05-1-2.61l-10.67-28.46h-78l-9.44,25.32A66.28,66.28,0,0,0,534,420.42a41.54,41.54,0,0,0-1.18,8.49q0,9.43,5.83,13.13t21.7,3.7v13.41Zm70.35-89.91h66.79l-33.12-88Z"/><polygon id="ARROW_V" class="cls-2" points="136.51 255 151.81 232.67 129.59 181.65 107.38 232.67 122.62 254.91 122.62 547.81 107.37 570.07 129.59 621.09 151.8 570.07 136.51 547.75 136.51 255"/><polygon id="ARROW_H" class="cls-2" points="748.97 513.72 800 491.51 748.97 469.3 726.73 484.54 73.31 484.54 51.03 469.28 0 491.51 51.03 513.72 73.33 498.43 726.65 498.43 748.97 513.72"/></svg>